<svg width="24" height="24" viewBox="0 0 24 24" fill="none" xmlns="http://www.w3.org/2000/svg">
<path d="M12 22.75C6.07 22.75 1.25 17.93 1.25 12C1.25 6.07 6.07 1.25 12 1.25C17.93 1.25 22.75 6.07 22.75 12C22.75 17.93 17.93 22.75 12 22.75ZM12 2.75C6.9 2.75 2.75 6.9 2.75 12C2.75 17.1 6.9 21.25 12 21.25C17.1 21.25 21.25 17.1 21.25 12C21.25 6.9 17.1 2.75 12 2.75Z" fill="#9A9A9A"/>
<path d="M8.99011 15.62C6.99011 15.62 5.37012 14 5.37012 12C5.37012 10 6.99011 8.38 8.99011 8.38C9.87011 8.38 10.7101 8.70003 11.3801 9.28003C11.6901 9.55003 11.7201 10.03 11.4501 10.34C11.1801 10.65 10.7001 10.68 10.3901 10.41C10.0001 10.07 9.51011 9.88001 8.99011 9.88001C7.82011 9.88001 6.87012 10.83 6.87012 12C6.87012 13.17 7.82011 14.12 8.99011 14.12C9.50011 14.12 10.0001 13.93 10.3901 13.59C10.7001 13.32 11.1701 13.35 11.4501 13.66C11.7201 13.97 11.6901 14.45 11.3801 14.72C10.7101 15.3 9.86011 15.62 8.99011 15.62Z" fill="#9A9A9A"/>
<path d="M15.9901 15.62C13.9901 15.62 12.3701 14 12.3701 12C12.3701 10 13.9901 8.38 15.9901 8.38C16.8701 8.38 17.7101 8.70003 18.3801 9.28003C18.6901 9.55003 18.7201 10.03 18.4501 10.34C18.1801 10.65 17.7001 10.68 17.3901 10.41C17.0001 10.07 16.5101 9.88001 15.9901 9.88001C14.8201 9.88001 13.8701 10.83 13.8701 12C13.8701 13.17 14.8201 14.12 15.9901 14.12C16.5001 14.12 17.0001 13.93 17.3901 13.59C17.7001 13.32 18.1701 13.35 18.4501 13.66C18.7201 13.97 18.6901 14.45 18.3801 14.72C17.7101 15.3 16.8601 15.62 15.9901 15.62Z" fill="#9A9A9A"/>
</svg>
