<svg width="49" height="49" viewBox="0 0 49 49" fill="none" xmlns="http://www.w3.org/2000/svg">
<rect x="1.16669" y="1" width="47" height="47" rx="11.5" stroke="white"/>
<path d="M30.1167 35.25C28.9867 35.25 27.7967 34.98 26.5667 34.46C25.3667 33.95 24.1567 33.25 22.9767 32.4C21.8067 31.54 20.6767 30.58 19.6067 29.53C18.5467 28.46 17.5867 27.33 16.7367 26.17C15.8767 24.97 15.1867 23.77 14.6967 22.61C14.1767 21.37 13.9167 20.17 13.9167 19.04C13.9167 18.26 14.0567 17.52 14.3267 16.83C14.6067 16.12 15.0567 15.46 15.6667 14.89C16.4367 14.13 17.3167 13.75 18.2567 13.75C18.6467 13.75 19.0467 13.84 19.3867 14C19.7767 14.18 20.1067 14.45 20.3467 14.81L22.6667 18.08C22.8767 18.37 23.0367 18.65 23.1467 18.93C23.2767 19.23 23.3467 19.53 23.3467 19.82C23.3467 20.2 23.2367 20.57 23.0267 20.92C22.8767 21.19 22.6467 21.48 22.3567 21.77L21.6767 22.48C21.6867 22.51 21.6967 22.53 21.7067 22.55C21.8267 22.76 22.0667 23.12 22.5267 23.66C23.0167 24.22 23.4767 24.73 23.9367 25.2C24.5267 25.78 25.0167 26.24 25.4767 26.62C26.0467 27.1 26.4167 27.34 26.6367 27.45L26.6167 27.5L27.3467 26.78C27.6567 26.47 27.9567 26.24 28.2467 26.09C28.7967 25.75 29.4967 25.69 30.1967 25.98C30.4567 26.09 30.7367 26.24 31.0367 26.45L34.3567 28.81C34.7267 29.06 34.9967 29.38 35.1567 29.76C35.3067 30.14 35.3767 30.49 35.3767 30.84C35.3767 31.32 35.2667 31.8 35.0567 32.25C34.8467 32.7 34.5867 33.09 34.2567 33.45C33.6867 34.08 33.0667 34.53 32.3467 34.82C31.6567 35.1 30.9067 35.25 30.1167 35.25ZM18.2567 15.25C17.7067 15.25 17.1967 15.49 16.7067 15.97C16.2467 16.4 15.9267 16.87 15.7267 17.38C15.5167 17.9 15.4167 18.45 15.4167 19.04C15.4167 19.97 15.6367 20.98 16.0767 22.02C16.5267 23.08 17.1567 24.18 17.9567 25.28C18.7567 26.38 19.6667 27.45 20.6667 28.46C21.6667 29.45 22.7467 30.37 23.8567 31.18C24.9367 31.97 26.0467 32.61 27.1467 33.07C28.8567 33.8 30.4567 33.97 31.7767 33.42C32.2867 33.21 32.7367 32.89 33.1467 32.43C33.3767 32.18 33.5567 31.91 33.7067 31.59C33.8267 31.34 33.8867 31.08 33.8867 30.82C33.8867 30.66 33.8567 30.5 33.7767 30.32C33.7467 30.26 33.6867 30.15 33.4967 30.02L30.1767 27.66C29.9767 27.52 29.7967 27.42 29.6267 27.35C29.4067 27.26 29.3167 27.17 28.9767 27.38C28.7767 27.48 28.5967 27.63 28.3967 27.83L27.6367 28.58C27.2467 28.96 26.6467 29.05 26.1867 28.88L25.9167 28.76C25.5067 28.54 25.0267 28.2 24.4967 27.75C24.0167 27.34 23.4967 26.86 22.8667 26.24C22.3767 25.74 21.8867 25.21 21.3767 24.62C20.9067 24.07 20.5667 23.6 20.3567 23.21L20.2367 22.91C20.1767 22.68 20.1567 22.55 20.1567 22.41C20.1567 22.05 20.2867 21.73 20.5367 21.48L21.2867 20.7C21.4867 20.5 21.6367 20.31 21.7367 20.14C21.8167 20.01 21.8467 19.9 21.8467 19.8C21.8467 19.72 21.8167 19.6 21.7667 19.48C21.6967 19.32 21.5867 19.14 21.4467 18.95L19.1267 15.67C19.0267 15.53 18.9067 15.43 18.7567 15.36C18.5967 15.29 18.4267 15.25 18.2567 15.25ZM26.6167 27.51L26.4567 28.19L26.7267 27.49C26.6767 27.48 26.6367 27.49 26.6167 27.51Z" fill="white"/>
<path d="M31.1667 22.25C30.7567 22.25 30.4167 21.91 30.4167 21.5C30.4167 21.14 30.0567 20.39 29.4567 19.75C28.8667 19.12 28.2167 18.75 27.6667 18.75C27.2567 18.75 26.9167 18.41 26.9167 18C26.9167 17.59 27.2567 17.25 27.6667 17.25C28.6367 17.25 29.6567 17.77 30.5467 18.72C31.3767 19.61 31.9167 20.7 31.9167 21.5C31.9167 21.91 31.5767 22.25 31.1667 22.25Z" fill="white"/>
<path d="M34.6667 22.25C34.2567 22.25 33.9167 21.91 33.9167 21.5C33.9167 18.05 31.1167 15.25 27.6667 15.25C27.2567 15.25 26.9167 14.91 26.9167 14.5C26.9167 14.09 27.2567 13.75 27.6667 13.75C31.9367 13.75 35.4167 17.23 35.4167 21.5C35.4167 21.91 35.0767 22.25 34.6667 22.25Z" fill="white"/>
</svg>
