<svg width="49" height="49" viewBox="0 0 49 49" fill="none" xmlns="http://www.w3.org/2000/svg">
<rect x="0.833344" y="1" width="47" height="47" rx="11.5" stroke="white"/>
<path d="M27.9833 33.91C27.5533 33.91 27.1233 33.82 26.7733 33.65L21.5233 31.02C21.2233 30.87 20.6333 30.88 20.3433 31.05L17.9833 32.4C16.9633 32.98 15.9133 33.06 15.1233 32.59C14.3233 32.13 13.8733 31.19 13.8733 30.01V20.29C13.8733 19.38 14.4733 18.35 15.2633 17.9L19.5933 15.42C20.3233 15 21.4333 14.97 22.1833 15.35L27.4333 17.98C27.7333 18.13 28.3133 18.11 28.6133 17.95L30.9633 16.61C31.9833 16.03 33.0333 15.95 33.8233 16.42C34.6233 16.88 35.0733 17.82 35.0733 19V28.73C35.0733 29.64 34.4733 30.67 33.6833 31.12L29.3533 33.6C28.9733 33.8 28.4733 33.91 27.9833 33.91ZM20.9733 29.42C21.4033 29.42 21.8333 29.51 22.1833 29.68L27.4333 32.31C27.7333 32.46 28.3133 32.44 28.6133 32.28L32.9433 29.8C33.2633 29.62 33.5733 29.08 33.5733 28.72V18.99C33.5733 18.36 33.3933 17.89 33.0633 17.71C32.7433 17.53 32.2433 17.6 31.7033 17.91L29.3533 19.25C28.6233 19.67 27.5133 19.7 26.7633 19.32L21.5133 16.69C21.2133 16.54 20.6333 16.56 20.3333 16.72L16.0033 19.2C15.6833 19.38 15.3733 19.92 15.3733 20.29V30.02C15.3733 30.65 15.5533 31.12 15.8733 31.3C16.1933 31.49 16.6933 31.41 17.2433 31.1L19.5933 29.76C19.9833 29.53 20.4833 29.42 20.9733 29.42Z" fill="white"/>
<path d="M20.8933 30.25C20.4833 30.25 20.1433 29.91 20.1433 29.5V16.5C20.1433 16.09 20.4833 15.75 20.8933 15.75C21.3033 15.75 21.6433 16.09 21.6433 16.5V29.5C21.6433 29.91 21.3033 30.25 20.8933 30.25Z" fill="white"/>
<path d="M28.0633 33.25C27.6533 33.25 27.3133 32.91 27.3133 32.5V19.12C27.3133 18.71 27.6533 18.37 28.0633 18.37C28.4733 18.37 28.8133 18.71 28.8133 19.12V32.5C28.8133 32.91 28.4733 33.25 28.0633 33.25Z" fill="white"/>
</svg>
