<svg width="49" height="49" viewBox="0 0 49 49" fill="none" xmlns="http://www.w3.org/2000/svg">
<rect x="1" y="1" width="47" height="47" rx="11.5" stroke="white"/>
<path d="M29.5 33.75H19.5C15.85 33.75 13.75 31.65 13.75 28V21C13.75 17.35 15.85 15.25 19.5 15.25H29.5C33.15 15.25 35.25 17.35 35.25 21V28C35.25 31.65 33.15 33.75 29.5 33.75ZM19.5 16.75C16.64 16.75 15.25 18.14 15.25 21V28C15.25 30.86 16.64 32.25 19.5 32.25H29.5C32.36 32.25 33.75 30.86 33.75 28V21C33.75 18.14 32.36 16.75 29.5 16.75H19.5Z" fill="white"/>
<path d="M24.4998 25.37C23.6598 25.37 22.8098 25.11 22.1598 24.58L19.0298 22.08C18.7098 21.82 18.6498 21.35 18.9098 21.03C19.1698 20.71 19.6398 20.65 19.9598 20.91L23.0898 23.41C23.8498 24.02 25.1398 24.02 25.8998 23.41L29.0298 20.91C29.3498 20.65 29.8298 20.7 30.0798 21.03C30.3398 21.35 30.2898 21.83 29.9598 22.08L26.8298 24.58C26.1898 25.11 25.3398 25.37 24.4998 25.37Z" fill="white"/>
</svg>
